<?xml version="1.0" encoding="utf-8"?>
<!-- Generator: Adobe Illustrator 23.0.0, SVG Export Plug-In . SVG Version: 6.00 Build 0)  -->
<svg version="1.1" xmlns="http://www.w3.org/2000/svg" xmlns:xlink="http://www.w3.org/1999/xlink" x="0px" y="0px"
	 viewBox="0 0 600 110" style="enable-background:new 0 0 600 110;" xml:space="preserve">
<g id="图层_1">
	<g id="title" transform="translate(0 0)">
		<path id="path61877" d="M68.89,40.17c0-11.63-9.58-21.21-21.31-21.21H21.83c-2.27,0-4.22,1.96-4.22,4.22
			c0,2.37,1.96,4.32,4.22,4.32h25.74c7,0,12.77,5.66,12.77,12.66s-5.77,12.77-12.77,12.77H21.83c-2.27,0-4.12,1.75-4.22,4.02v29.86
			c0,2.27,1.96,4.22,4.22,4.22c2.37,0,4.32-1.96,4.32-4.22V61.49h21.42C59.31,61.49,68.89,51.91,68.89,40.17z M50.35,73.74
			l8.96,15.24c0.72,1.24,2.06,2.06,3.5,2.06c3.29,0,5.25-3.5,3.6-6.28l-8.96-15.14c-0.72-1.34-2.06-2.06-3.5-2.06
			C50.66,67.56,48.71,71.06,50.35,73.74z"/>
		<path id="path61879" d="M114.72,18.96c-2.27,0-4.22,1.96-4.22,4.22v63.63c0,2.27,1.96,4.22,4.22,4.22c2.37,0,4.32-1.96,4.32-4.22
			V23.19C119.05,20.92,117.09,18.96,114.72,18.96z M126.77,53.66c0,2.27,1.96,4.22,4.32,4.22h12.66c2.27,0,4.22-1.96,4.22-4.22
			c0-2.37-1.96-4.32-4.22-4.32h-12.66C128.73,49.34,126.77,51.29,126.77,53.66z M155.7,86.81c0,2.27,1.96,4.22,4.32,4.22
			c2.27,0,4.22-1.96,4.22-4.22V23.19c0-2.27-1.96-4.22-4.22-4.22c-2.37,0-4.32,1.96-4.32,4.22V86.81z"/>
		<path id="path61881" d="M213.51,18.96c-2.27,0-4.22,1.96-4.22,4.22v63.63c0,2.27,1.96,4.22,4.22,4.22c2.37,0,4.32-1.96,4.32-4.22
			V23.19C217.83,20.92,215.87,18.96,213.51,18.96z"/>
		<path id="path61883" d="M284.65,50.37c-10.71-3.4-15.75-5.66-15.75-11.63c0-7.21,5.66-12.25,13.8-12.25
			c6.49,0,11.94,4.43,13.38,10.5c0.51,1.85,2.16,3.29,4.12,3.29c2.88,0,4.84-2.68,4.12-5.35c-2.37-9.78-11.22-16.99-21.62-16.99
			c-12.77,0-22.34,8.96-22.34,20.8c0,12.87,12.05,16.68,21.62,19.77c11.02,3.5,16.16,5.87,16.16,12.15
			c0,8.96-7.62,12.87-15.03,12.87c-7.21,0-13.28-5.05-14.72-11.74c-0.41-1.96-2.16-3.29-4.22-3.29c-2.68,0-4.74,2.57-4.12,5.25
			c2.37,10.5,11.84,18.33,23.06,18.33c13.59,0,23.58-8.96,23.58-21.42C306.69,57.47,294.43,53.56,284.65,50.37z"/>
		<path id="path61885" d="M381.17,17.93c-19.87,0-36.04,16.58-36.04,37.07s16.16,37.07,36.04,37.07S417.21,75.49,417.21,55
			S401.04,17.93,381.17,17.93z M353.68,55c0-15.75,12.36-28.52,27.49-28.52S408.66,39.25,408.66,55s-12.36,28.52-27.49,28.52
			S353.68,70.75,353.68,55z"/>
		<path id="path61887" d="M497.08,18.96h-36.65c-2.27,0-4.22,1.96-4.22,4.22c0,2.37,1.96,4.32,4.22,4.32h36.65
			c2.37,0,4.32-1.96,4.32-4.32C501.4,20.92,499.44,18.96,497.08,18.96z M456.2,86.81c0,2.27,1.96,4.22,4.22,4.22
			c2.37,0,4.32-1.96,4.32-4.22V57.88h26.77c2.37,0,4.32-1.96,4.32-4.22c0-2.37-1.96-4.32-4.32-4.32h-31.09
			c-2.27,0-4.22,1.96-4.22,4.32L456.2,86.81z"/>
		<path id="path61889" d="M578.17,18.96h-41.6c-2.27,0-4.22,1.96-4.22,4.22c0,2.37,1.96,4.32,4.22,4.32h41.6
			c2.37,0,4.22-1.96,4.22-4.32C582.39,20.92,580.53,18.96,578.17,18.96z M553.15,86.81c0,2.27,1.85,4.22,4.22,4.22
			s4.32-1.96,4.32-4.22V40.28c0-2.37-1.96-4.22-4.32-4.22s-4.22,1.85-4.22,4.22V86.81z"/>
	</g>
</g>
<g id="图层_2">
	<g>
	</g>
	<g>
	</g>
	<g>
	</g>
	<g>
	</g>
	<g>
	</g>
	<g>
	</g>
	<g>
	</g>
	<g>
	</g>
	<g>
	</g>
	<g>
	</g>
	<g>
	</g>
	<g>
	</g>
	<g>
	</g>
	<g>
	</g>
	<g>
	</g>
</g>
</svg>
